<svg xmlns="http://www.w3.org/2000/svg" width="39.961" height="43.595" viewBox="0 0 39.961 43.595">
  <path id="asterisk" d="M40.4,28.447,28.293,21.8,40.4,15.148a2.043,2.043,0,0,0,.786-2.813L39.529,9.462A2.044,2.044,0,0,0,36.7,8.737L24.887,15.9l.3-13.811A2.044,2.044,0,0,0,23.14,0H19.822a2.043,2.043,0,0,0-2.043,2.087l.3,13.811L6.262,8.737a2.044,2.044,0,0,0-2.829.726L1.775,12.335a2.044,2.044,0,0,0,.786,2.813L14.669,21.8,2.561,28.447a2.043,2.043,0,0,0-.786,2.813l1.659,2.873a2.044,2.044,0,0,0,2.829.726L18.075,27.7l-.3,13.811a2.044,2.044,0,0,0,2.043,2.087H23.14a2.044,2.044,0,0,0,2.043-2.087l-.3-13.811L36.7,34.858a2.044,2.044,0,0,0,2.829-.726l1.659-2.873a2.043,2.043,0,0,0-.786-2.813Z" transform="translate(-1.5)" fill="#f2f2e6"/>
</svg>
