<svg xmlns="http://www.w3.org/2000/svg" width="170.667" height="163.683" viewBox="0 0 170.667 163.683">
  <g id="logo" transform="translate(-454.833 -395)">
    <path id="Subtraction_2" data-name="Subtraction 2" d="M71.032,142.064A71.6,71.6,0,0,1,56.7,140.617,71.009,71.009,0,0,1,1.443,85.347a71.727,71.727,0,0,1,0-28.631A71.006,71.006,0,0,1,56.717,1.443,71.555,71.555,0,0,1,71.032,0V38.5a32.66,32.66,0,0,0,0,65.319v38.248Z" transform="matrix(-0.94, 0.342, -0.342, -0.94, 570.169, 534.388)" fill="#f2f2e6"/>
    <path id="Subtraction_5" data-name="Subtraction 5" d="M38.5,71.136H0v-.1A71.551,71.551,0,0,1,1.443,56.716a70.648,70.648,0,0,1,10.688-25.4A71.237,71.237,0,0,1,43.383,5.582,70.669,70.669,0,0,1,56.716,1.443,71.552,71.552,0,0,1,71.032,0V38.5A32.726,32.726,0,0,0,38.5,71.136Z" transform="translate(534.382 396.752) rotate(25.976)" fill="#f2f2e6"/>
    <circle id="Ellipse_5" data-name="Ellipse 5" cx="5.837" cy="5.837" r="5.837" transform="translate(613.826 395)" fill="#f2f2e6"/>
  </g>
</svg>
